<?xml version="1.0" encoding="UTF-8" standalone="no"?>
<!-- Created with Inkscape (http://www.inkscape.org/) -->

<svg
   xmlns:dc="http://purl.org/dc/elements/1.1/"
   xmlns:cc="http://creativecommons.org/ns#"
   xmlns:rdf="http://www.w3.org/1999/02/22-rdf-syntax-ns#"
   xmlns:svg="http://www.w3.org/2000/svg"
   xmlns="http://www.w3.org/2000/svg"
   xmlns:sodipodi="http://sodipodi.sourceforge.net/DTD/sodipodi-0.dtd"
   xmlns:inkscape="http://www.inkscape.org/namespaces/inkscape"
   width="150"
   height="139"
   viewBox="0 0 39.6875 36.777087"
   version="1.1"
   id="svg8"
   inkscape:version="0.92.3 (2405546, 2018-03-11)"
   sodipodi:docname="ico_projector.svg">
  <defs
     id="defs2" />
  <sodipodi:namedview
     id="base"
     pagecolor="#ffffff"
     bordercolor="#666666"
     borderopacity="1.0"
     inkscape:pageopacity="0.0"
     inkscape:pageshadow="2"
     inkscape:zoom="2.8"
     inkscape:cx="14.028611"
     inkscape:cy="121.158"
     inkscape:document-units="mm"
     inkscape:current-layer="layer1"
     showgrid="false"
     width="150mm"
     units="px"
     inkscape:window-width="1920"
     inkscape:window-height="1137"
     inkscape:window-x="-8"
     inkscape:window-y="-8"
     inkscape:window-maximized="1" />
  <metadata
     id="metadata5">
    <rdf:RDF>
      <cc:Work
         rdf:about="">
        <dc:format>image/svg+xml</dc:format>
        <dc:type
           rdf:resource="http://purl.org/dc/dcmitype/StillImage" />
        <dc:title></dc:title>
      </cc:Work>
    </rdf:RDF>
  </metadata>
  <g
     inkscape:label="レイヤー 1"
     inkscape:groupmode="layer"
     id="layer1"
     transform="translate(0,-260.22288)">
    <rect
       style="fill:#0d47a0;fill-opacity:1;stroke-width:0.24451812"
       id="rect1374"
       width="26.593317"
       height="14.967093"
       x="3.2072346"
       y="269.60489"
       ry="2.1506126" />
    <path
       sodipodi:type="star"
       style="fill:#0d47a0;fill-opacity:1;stroke-width:5.42483521;stroke-miterlimit:4;stroke-dasharray:none"
       id="path1387"
       sodipodi:sides="3"
       sodipodi:cx="46.371265"
       sodipodi:cy="235.12711"
       sodipodi:r1="26.621508"
       sodipodi:r2="18.661701"
       sodipodi:arg1="1.0622351"
       sodipodi:arg2="2.0376689"
       inkscape:flatsided="false"
       inkscape:rounded="0.21046098"
       inkscape:randomized="0"
       d="m 59.333838,258.37955 c -3.934529,2.57972 -17.323488,-4.17444 -21.362125,-6.58791 -4.509774,-2.69502 -17.920983,-11.81961 -18.218945,-17.06484 -0.266834,-4.69726 12.276919,-12.91536 16.386366,-15.20619 4.588844,-2.55806 19.196575,-9.61022 23.888056,-7.24565 4.201363,2.11755 5.046569,17.08981 4.975759,21.79411 -0.07907,5.25308 -1.275591,21.42983 -5.669111,24.31048 z"
       inkscape:transform-center-x="1.6908443"
       inkscape:transform-center-y="0.0049585575"
       transform="matrix(0.25505942,-0.00204994,0.00324536,0.16110887,21.704553,240.15505)" />
    <circle
       style="fill:#ffffff;fill-opacity:1;stroke-width:0.24000001;stroke-miterlimit:4;stroke-dasharray:none"
       id="path1673-0"
       cx="6.4628224"
       cy="267.19943"
       r="6" />
    <circle
       style="fill:#0d47a0;fill-opacity:1;stroke-width:0.2;stroke-miterlimit:4;stroke-dasharray:none"
       id="path1673"
       cx="6.4492574"
       cy="267.61392"
       r="5" />
    <circle
       style="fill:#ffffff;fill-opacity:1;stroke-width:0.28;stroke-miterlimit:4;stroke-dasharray:none"
       id="path1673-0-0"
       cx="19.778704"
       cy="266.18869"
       r="7" />
    <circle
       style="fill:#0d47a0;fill-opacity:1;stroke-width:0.23999999;stroke-miterlimit:4;stroke-dasharray:none"
       id="path1673-6"
       cx="19.765139"
       cy="266.60321"
       r="6" />
    <path
       sodipodi:type="star"
       style="fill:#0d47a0;fill-opacity:1;stroke-width:0.2;stroke-miterlimit:4;stroke-dasharray:none"
       id="path1729"
       sodipodi:sides="3"
       sodipodi:cx="-18.708866"
       sodipodi:cy="274.28207"
       sodipodi:r1="14.48258"
       sodipodi:r2="6.6032448"
       sodipodi:arg1="0.84415399"
       sodipodi:arg2="1.877909"
       inkscape:flatsided="false"
       inkscape:rounded="-0.035181804"
       inkscape:randomized="0"
       d="m -9.0871636,285.10649 c 0.3239501,-0.29585 -12.0342794,-4.66837 -11.6179144,-4.53013 0.422285,0.1402 -12.284434,-3.80842 -12.188858,-3.37385 0.09424,0.42847 10.060066,-8.08781 9.732168,-7.79635 -0.332561,0.29561 9.440401,-8.73442 9.016269,-8.86893 -0.418186,-0.13263 1.974213,12.75617 1.885746,12.32647 -0.08972,-0.43581 2.8440334,12.54284 3.1725894,12.24279 z"
       inkscape:transform-center-x="-0.44913162"
       inkscape:transform-center-y="1.7641222"
       transform="matrix(-0.41645408,0.13468696,0.2588253,-0.63589514,-69.402207,465.24582)" />
    <path
       sodipodi:type="star"
       style="fill:#0d47a0;fill-opacity:1;stroke-width:0.2;stroke-miterlimit:4;stroke-dasharray:none"
       id="path1729-4"
       sodipodi:sides="3"
       sodipodi:cx="-18.708866"
       sodipodi:cy="274.28207"
       sodipodi:r1="14.48258"
       sodipodi:r2="6.6032448"
       sodipodi:arg1="0.84415399"
       sodipodi:arg2="1.877909"
       inkscape:flatsided="false"
       inkscape:rounded="-0.035181804"
       inkscape:randomized="0"
       d="m -9.0871636,285.10649 c 0.3239501,-0.29585 -12.0342794,-4.66837 -11.6179144,-4.53013 0.422285,0.1402 -12.284434,-3.80842 -12.188858,-3.37385 0.09424,0.42847 10.060066,-8.08781 9.732168,-7.79635 -0.332561,0.29561 9.440401,-8.73442 9.016269,-8.86893 -0.418186,-0.13263 1.974213,12.75617 1.885746,12.32647 -0.08972,-0.43581 2.8440334,12.54284 3.1725894,12.24279 z"
       inkscape:transform-center-x="0.44913148"
       inkscape:transform-center-y="1.7641222"
       transform="matrix(0.41645409,0.13468696,-0.2588253,-0.63589514,102.11299,465.23784)" />
  </g>
</svg>
