<?xml version="1.0" encoding="UTF-8" standalone="no"?>
<!-- Created with Inkscape (http://www.inkscape.org/) -->

<svg
   xmlns:dc="http://purl.org/dc/elements/1.1/"
   xmlns:cc="http://creativecommons.org/ns#"
   xmlns:rdf="http://www.w3.org/1999/02/22-rdf-syntax-ns#"
   xmlns:svg="http://www.w3.org/2000/svg"
   xmlns="http://www.w3.org/2000/svg"
   xmlns:sodipodi="http://sodipodi.sourceforge.net/DTD/sodipodi-0.dtd"
   xmlns:inkscape="http://www.inkscape.org/namespaces/inkscape"
   width="29.999998mm"
   height="35mm"
   viewBox="0 0 29.999998 35"
   version="1.1"
   id="svg8"
   inkscape:version="0.92.2 5c3e80d, 2017-08-06"
   sodipodi:docname="icon_jp.svg">
  <defs
     id="defs2" />
  <sodipodi:namedview
     id="base"
     pagecolor="#ffffff"
     bordercolor="#666666"
     borderopacity="1.0"
     inkscape:pageopacity="0.0"
     inkscape:pageshadow="2"
     inkscape:zoom="2.8"
     inkscape:cx="89.638011"
     inkscape:cy="41.998068"
     inkscape:document-units="mm"
     inkscape:current-layer="layer1"
     showgrid="false"
     inkscape:window-width="1440"
     inkscape:window-height="775"
     inkscape:window-x="0"
     inkscape:window-y="1"
     inkscape:window-maximized="1"
     fit-margin-top="0"
     fit-margin-left="0"
     fit-margin-right="0"
     fit-margin-bottom="0" />
  <metadata
     id="metadata5">
    <rdf:RDF>
      <cc:Work
         rdf:about="">
        <dc:format>image/svg+xml</dc:format>
        <dc:type
           rdf:resource="http://purl.org/dc/dcmitype/StillImage" />
        <dc:title />
      </cc:Work>
    </rdf:RDF>
  </metadata>
  <g
     inkscape:label="レイヤー 1"
     inkscape:groupmode="layer"
     id="layer1"
     transform="translate(-0.1502502,-261.94424)">
    <rect
       style="opacity:1;fill:#03a9f4;fill-opacity:1;stroke:#03a9f4;stroke-width:6.01422119;stroke-linecap:butt;stroke-linejoin:bevel;stroke-miterlimit:4;stroke-dasharray:none;stroke-dashoffset:0;stroke-opacity:1;paint-order:markers stroke fill"
       id="rect815"
       width="23.985777"
       height="28.985779"
       x="3.1573608"
       y="264.95135"
       ry="0.28627104" />
    <g
       aria-label="Jp"
       style="font-style:normal;font-variant:normal;font-weight:normal;font-stretch:normal;font-size:19.75555611px;line-height:1.25;font-family:Cambria;-inkscape-font-specification:'Cambria, Normal';font-variant-ligatures:normal;font-variant-caps:normal;font-variant-numeric:normal;font-feature-settings:normal;text-align:start;letter-spacing:0px;word-spacing:0px;writing-mode:lr-tb;text-anchor:start;fill:#ffffff;fill-opacity:1;stroke:none;stroke-width:0.44247428"
       id="text818">
      <path
         d="m 4.539355,288.04388 v -2.26687 h 1.0996745 q 0.028939,0.95498 0.4533746,1.418 0.4244358,0.47266 1.2733073,0.47266 1.1479059,0 1.6012804,-0.72347 0.4533746,-0.72347 0.4533746,-2.82635 V 271.22079 H 7.1824323 v -1.03215 H 13.21135 v 1.03215 h -1.832791 v 12.97423 q 0,2.38263 -0.954981,3.44372 -0.9549802,1.06109 -3.0771591,1.06109 -0.684885,0 -1.3890626,-0.16399 -0.7138238,-0.16399 -1.4180013,-0.49196 z"
         style="font-style:normal;font-variant:normal;font-weight:normal;font-stretch:normal;font-size:19.75555611px;font-family:Cambria;-inkscape-font-specification:'Cambria, Normal';font-variant-ligatures:normal;font-variant-caps:normal;font-variant-numeric:normal;font-feature-settings:normal;text-align:start;writing-mode:lr-tb;text-anchor:start;fill:#ffffff;stroke-width:0.44247428"
         id="path820" />
      <path
         d="m 18.159885,278.95709 v 1.01286 q 0,1.85209 0.704177,2.82636 0.713824,0.96463 2.064302,0.96463 1.360123,0 2.054655,-1.09003 0.704177,-1.09003 0.704177,-3.21221 0,-2.13182 -0.704177,-3.21221 -0.694532,-1.08038 -2.054655,-1.08038 -1.350478,0 -2.064302,0.97427 -0.704177,0.97428 -0.704177,2.81671 z m -1.774914,-3.58841 h -1.707389 v -1.03215 h 3.482303 v 1.60128 q 0.520898,-0.96462 1.321538,-1.418 0.810287,-0.46302 1.996778,-0.46302 1.890668,0 3.086805,1.49517 1.196138,1.49517 1.196138,3.90674 0,2.41157 -1.196138,3.91639 -1.196137,1.49517 -3.086805,1.49517 -1.186491,0 -1.996778,-0.45338 -0.80064,-0.46302 -1.321538,-1.42765 v 4.67844 h 1.67845 v 1.03216 h -5.160753 v -1.03216 h 1.707389 z"
         style="font-style:normal;font-variant:normal;font-weight:normal;font-stretch:normal;font-size:19.75555611px;font-family:Cambria;-inkscape-font-specification:'Cambria, Normal';font-variant-ligatures:normal;font-variant-caps:normal;font-variant-numeric:normal;font-feature-settings:normal;text-align:start;writing-mode:lr-tb;text-anchor:start;fill:#ffffff;stroke-width:0.44247428"
         id="path822" />
    </g>
  </g>
</svg>
