<?xml version="1.0" encoding="UTF-8" standalone="no"?>
<!-- Created with Inkscape (http://www.inkscape.org/) -->

<svg
   xmlns:dc="http://purl.org/dc/elements/1.1/"
   xmlns:cc="http://creativecommons.org/ns#"
   xmlns:rdf="http://www.w3.org/1999/02/22-rdf-syntax-ns#"
   xmlns:svg="http://www.w3.org/2000/svg"
   xmlns="http://www.w3.org/2000/svg"
   xmlns:sodipodi="http://sodipodi.sourceforge.net/DTD/sodipodi-0.dtd"
   xmlns:inkscape="http://www.inkscape.org/namespaces/inkscape"
   width="100.69613"
   height="63.527634"
   viewBox="0 0 26.642537 16.808358"
   version="1.1"
   id="svg8"
   inkscape:version="0.92.2 5c3e80d, 2017-08-06"
   sodipodi:docname="icon_reverse_white.svg"
   inkscape:export-filename="/Users/hiro/Desktop/work/movieup/site/images/icon_reverse_white.png"
   inkscape:export-xdpi="101.7"
   inkscape:export-ydpi="101.7">
  <defs
     id="defs2" />
  <sodipodi:namedview
     id="base"
     pagecolor="#000000"
     bordercolor="#666666"
     borderopacity="1.0"
     inkscape:pageopacity="1"
     inkscape:pageshadow="2"
     inkscape:zoom="5.28"
     inkscape:cx="54.747137"
     inkscape:cy="6.0046994"
     inkscape:document-units="mm"
     inkscape:current-layer="layer1"
     showgrid="true"
     units="px"
     inkscape:window-width="1440"
     inkscape:window-height="775"
     inkscape:window-x="0"
     inkscape:window-y="1"
     inkscape:window-maximized="1"
     showguides="false"
     inkscape:snap-grids="false"
     inkscape:snap-to-guides="false"
     fit-margin-top="0"
     fit-margin-left="0"
     fit-margin-right="0"
     fit-margin-bottom="0">
    <inkscape:grid
       type="xygrid"
       id="grid48"
       originx="-2.0258599"
       originy="-0.47089561" />
  </sodipodi:namedview>
  <metadata
     id="metadata5">
    <rdf:RDF>
      <cc:Work
         rdf:about="">
        <dc:format>image/svg+xml</dc:format>
        <dc:type
           rdf:resource="http://purl.org/dc/dcmitype/StillImage" />
        <dc:title />
      </cc:Work>
    </rdf:RDF>
  </metadata>
  <g
     inkscape:label="レイヤー 1"
     inkscape:groupmode="layer"
     id="layer1"
     transform="translate(-2.0259094,-279.72034)"
     style="display:inline;opacity:1">
    <rect
       style="opacity:1;vector-effect:none;fill:#ffffff;fill-opacity:1;fill-rule:evenodd;stroke-width:0;stroke-linecap:butt;stroke-linejoin:miter;stroke-miterlimit:4;stroke-dasharray:none;stroke-dashoffset:0;stroke-opacity:1"
       id="rect837"
       width="21.408949"
       height="11.330906"
       x="-23.434858"
       y="285.19778"
       rx="0.87718201"
       ry="1.0106618"
       transform="scale(-1,1)" />
    <path
       style="fill:#ffffff;fill-opacity:1;stroke:#ffffff;stroke-width:0.60235214;stroke-linejoin:round;stroke-miterlimit:4;stroke-dasharray:none;stroke-opacity:1"
       d="m 28.367251,286.23944 c 0,2.69008 0,7.53224 0,9.2476 0,1.90334 -5.733278,-3.4181 -5.733278,-3.4181 v -2.41119 c 0,0 5.733278,-5.3217 5.733278,-3.41831 z"
       id="path3807"
       inkscape:connector-curvature="0"
       sodipodi:nodetypes="ssccs" />
    <g
       id="g840"
       transform="matrix(-0.62973116,0,0,0.62973116,40.440445,118.31235)"
       style="">
      <path
         d="m 44.936874,262.31564 a 6.5500328,5.5500305 0 0 1 -6.550033,5.55003 6.5500328,5.5500305 0 0 1 -6.550033,-5.55003 6.5500328,5.5500305 0 0 1 6.550033,-5.55003 6.5500328,5.5500305 0 0 1 6.550033,5.55003 v 0"
         style="fill:#0d47a0;fill-opacity:1;stroke:#0d47a0;stroke-width:0.89993483;stroke-linejoin:round;stroke-miterlimit:4;stroke-dasharray:none;stroke-opacity:1"
         id="path854"
         inkscape:connector-curvature="0" />
      <ellipse
         ry="6"
         rx="7"
         cy="262.31253"
         cx="51.98399"
         id="path833"
         style="opacity:1;fill:#0d47a0;fill-opacity:1;stroke:none;stroke-width:1.16592085;stroke-linecap:round;stroke-linejoin:round;stroke-miterlimit:4;stroke-dasharray:none;stroke-opacity:1" />
      <ellipse
         ry="2.3485637"
         rx="3"
         cy="261.10147"
         cx="51.98399"
         id="path835"
         style="opacity:1;fill:#d6687b;fill-opacity:1;stroke:none;stroke-width:0.95507222;stroke-linecap:round;stroke-linejoin:round;stroke-miterlimit:4;stroke-dasharray:none;stroke-opacity:1" />
      <circle
         r="2.5"
         cy="265.37958"
         cx="38.386841"
         id="path834"
         style="opacity:1;fill:#d6687b;fill-opacity:1;stroke:none;stroke-width:1.19936991;stroke-linecap:round;stroke-linejoin:round;stroke-miterlimit:4;stroke-dasharray:none;stroke-opacity:1" />
    </g>
    <g
       id="g1063"
       transform="translate(116.99175,307.14398)"
       style="">
      <g
         transform="translate(0,-38.62913)"
         inkscape:label="レイヤー 2"
         id="layer2-3"
         style="" />
    </g>
    <path
       style="opacity:1;fill:#ffffff;fill-opacity:1;fill-rule:evenodd;stroke:#ffffff;stroke-width:0;stroke-linecap:round;stroke-linejoin:round;stroke-miterlimit:4;stroke-dasharray:none;stroke-opacity:1"
       d="M 2.1756066,63.201266 C 1.3008728,62.820376 0.4333659,61.65031 0.2030094,60.540688 0.06851579,59.892836 0.0200274,53.653866 0.05499018,41.495154 L 0.10698579,23.413086 0.6261434,22.529947 c 0.8346852,-1.419882 1.42231,-1.673679 3.8751257,-1.673679 h 2.0768464 l 0.7062417,1.025431 c 1.984224,2.881005 5.7157988,5.254688 9.9178348,6.308809 1.999699,0.501643 6.642974,0.449817 8.828466,-0.09854 3.913957,-0.982043 7.328483,-3.193331 9.637532,-6.241381 l 0.753245,-0.994318 1.255655,0.0049 1.255653,0.0049 0.645362,0.951237 c 0.943678,1.390944 3.154633,3.367539 4.844748,4.331211 5.891684,3.359325 13.278557,3.278199 19.182888,-0.210677 1.294855,-0.765131 3.937368,-3.242244 4.588366,-4.30117 l 0.473485,-0.77018 4.927627,-0.0051 4.927625,-0.0051 0.706284,0.479932 c 0.388456,0.263963 0.898297,0.839247 1.132979,1.278409 0.403538,0.75514 0.431837,1.070291 0.521394,5.806551 l 0.0947,5.008075 1.420454,-1.221544 c 3.644324,-3.133997 6.655192,-5.454741 9.529343,-7.345112 3.644118,-2.396789 5.819529,-3.188239 7.18972,-2.615737 0.389451,0.162723 0.865508,0.567749 1.079112,0.918105 0.37637,0.617325 0.38224,0.906233 0.38293,18.862177 7.6e-4,19.972612 0.0428,19.223542 -1.111324,19.820352 -0.315534,0.163169 -0.915642,0.296671 -1.333574,0.296671 -2.371741,0 -7.42111,-3.164682 -14.552494,-9.120745 L 80.883501,50.769338 V 55.3807 c 0,3.509418 -0.06665,4.835788 -0.278902,5.550524 -0.301695,1.015917 -1.170259,2.004675 -2.053503,2.337671 -0.369694,0.139379 -12.070591,0.198737 -38.162879,0.193596 C 9.3632831,63.45638 2.6561911,63.410529 2.1756066,63.201266 Z"
       id="path823"
       inkscape:connector-curvature="0"
       transform="matrix(0.26458333,0,0,0.26458333,2.0259094,279.72034)" />
    <path
       style="opacity:1;fill:#ffffff;fill-opacity:1;fill-rule:evenodd;stroke:#ffffff;stroke-width:0;stroke-linecap:round;stroke-linejoin:round;stroke-miterlimit:4;stroke-dasharray:none;stroke-opacity:1"
       d="M 2.1756066,63.201266 C 1.3008728,62.820376 0.4333659,61.65031 0.2030094,60.540688 0.06851579,59.892836 0.0200274,53.653866 0.05499018,41.495154 L 0.10698579,23.413086 0.6261434,22.529947 c 0.8339274,-1.418593 1.4238988,-1.674098 3.8592579,-1.671371 l 2.0609784,0.0023 0.9587095,1.276101 c 1.3841566,1.842396 3.2330188,3.312735 5.6700788,4.509226 2.481018,1.218073 4.374292,1.733075 6.977287,1.897938 6.190256,0.392067 12.173332,-2.189238 15.494417,-6.684826 l 0.741002,-1.003056 h 1.288303 1.288301 l 0.721281,1.047266 c 1.959005,2.844389 5.74385,5.246746 9.902797,6.285609 1.945392,0.485939 6.849337,0.432282 8.790292,-0.09618 1.954477,-0.532144 4.07428,-1.432185 5.416821,-2.299912 1.448124,-0.935966 3.430461,-2.802055 4.232309,-3.984116 l 0.639614,-0.9429 4.943583,-0.0049 c 4.84172,-0.0048 4.956843,0.004 5.587121,0.428582 0.353945,0.238407 0.856606,0.813691 1.117023,1.278409 0.463481,0.827091 0.475485,0.950043 0.568182,5.819436 l 0.0947,4.974492 2.272727,-1.911372 c 8.148727,-6.853113 13.722066,-10.135344 15.769851,-9.287124 0.31642,0.131066 0.77549,0.451365 1.020151,0.711776 l 0.44484,0.473474 0.0501,18.450176 c 0.0552,20.338941 0.10492,19.442221 -1.112126,20.071581 -2.256324,1.16679 -7.303591,-1.665418 -16.056428,-9.009856 l -2.483822,-2.084155 v 4.607746 c 0,3.506233 -0.06667,4.83226 -0.278902,5.546907 -0.301695,1.015917 -1.170259,2.004675 -2.053503,2.337671 C 78.181395,63.408248 66.480498,63.467606 40.38821,63.462465 9.3632831,63.45638 2.6561911,63.410529 2.1756066,63.201266 Z"
       id="path825"
       inkscape:connector-curvature="0"
       transform="matrix(0.26458333,0,0,0.26458333,2.0259094,279.72034)" />
    <path
       style="opacity:1;fill:#ffffff;fill-opacity:1;fill-rule:nonzero;stroke:#ffffff;stroke-width:0;stroke-linecap:round;stroke-linejoin:round;stroke-miterlimit:4;stroke-dasharray:none;stroke-opacity:1"
       d="m 4.4492188,20.855469 c -1.8824983,0 -2.1771465,0.04642 -2.7519532,0.433593 -0.3539461,0.238407 -0.85677082,0.814579 -1.11718748,1.279297 L 0.10742188,23.412109 0.04882812,41.5 c -0.04077067,12.540919 0.0034886,18.380888 0.14648438,19.044922 0.23766785,1.103667 1.1143155,2.279097 1.9804687,2.65625 0.4805845,0.209263 7.1879542,0.255606 38.2128908,0.261719 26.14371,0.0052 37.791688,-0.05536 38.162109,-0.195313 0.6611,-0.24978 1.508191,-1.036287 1.923828,-1.787109 0.266168,-0.48082 0.32343,-1.343199 0.375,-5.615235 l 0.06055,-5.048828 2.492188,2.082032 c 8.855084,7.393557 13.761969,10.141098 16.021484,8.972656 1.206519,-0.623909 1.157289,0.227103 1.154289,-19.84375 -0.002,-14.206515 -0.0558,-18.338677 -0.24023,-18.703125 -0.31723,-0.626927 -1.396438,-1.332031 -2.039059,-1.332031 -1.028635,0 -2.998885,0.775899 -4.958984,1.953124 -2.299346,1.380977 -6.79741,4.724265 -10.089844,7.5 l -2.271484,1.916016 -0.0957,-4.974609 c -0.0927,-4.869393 -0.104878,-4.991269 -0.568359,-5.81836 -0.260417,-0.464718 -0.761289,-1.04089 -1.115234,-1.279297 -0.630147,-0.424465 -0.747696,-0.433593 -5.634766,-0.433593 -2.745014,0 -4.992187,0.0704 -4.992187,0.154297 0,0.0839 -0.470311,0.722878 -1.046875,1.421875 -2.191353,2.656677 -5.322203,4.606799 -8.919922,5.55664 -2.584309,0.682287 -6.692386,0.724911 -9.25586,0.0957 -3.655987,-0.897366 -7.545201,-3.348532 -9.496093,-5.984375 l -0.919922,-1.24414 h -1.333985 c -1.285709,-3e-6 -1.342938,0.02188 -1.673828,0.582031 -1.072639,1.815833 -4.322676,4.465584 -6.857422,5.591797 -2.760301,1.226429 -6.874646,1.807993 -9.986328,1.412109 -4.689456,-0.596617 -9.052294,-2.984025 -11.5839841,-6.33789 L 6.5566406,20.855469 Z"
       transform="matrix(0.26458333,0,0,0.26458333,2.0259094,279.72034)"
       id="path827"
       inkscape:connector-curvature="0" />
  </g>
</svg>
